<svg width="40" height="43" viewBox="0 0 40 43" fill="none" xmlns="http://www.w3.org/2000/svg">
<g filter="url(#filter0_d_717_480)">
<path d="M20 4.3C11.8074 4.3 5.14839 9.8737 5.00004 18.8481C4.99937 18.8877 5.00675 18.9272 5.02173 18.964C5.03672 19.0008 5.05901 19.0343 5.0873 19.0625C5.11558 19.0906 5.14928 19.1129 5.1864 19.1279C5.22352 19.1429 5.2633 19.1504 5.30341 19.15C5.36312 19.1493 5.42141 19.1318 5.47155 19.0997C5.52169 19.0676 5.56163 19.0221 5.58677 18.9685C6.45853 17.1156 7.9687 16.675 9.99892 16.675C11.9741 16.675 13.2726 17.0495 14.0927 18.8233C14.1827 19.0213 14.3794 19.15 14.5994 19.15C14.716 19.1456 14.829 19.1085 14.9252 19.0431C15.0214 18.9777 15.0968 18.8866 15.1428 18.7804C15.9329 17.0528 18.1681 16.675 20 16.675M20 4.3C28.1942 4.3 34.8516 9.8737 35 18.8481C35.0006 18.8877 34.9933 18.9272 34.9783 18.964C34.9633 19.0008 34.941 19.0343 34.9127 19.0625C34.8844 19.0906 34.8507 19.1129 34.8136 19.1279C34.7765 19.1429 34.7367 19.1504 34.6966 19.15C34.6369 19.1493 34.5786 19.1318 34.5285 19.0997C34.4783 19.0676 34.4384 19.0221 34.4132 18.9685C33.5398 17.1156 32.0296 16.675 30.0011 16.675C28.0259 16.675 26.7274 17.0495 25.9073 18.8233C25.8626 18.9196 25.7913 19.0013 25.7016 19.0591C25.612 19.117 25.5076 19.1485 25.4006 19.15C25.284 19.1456 25.171 19.1085 25.0748 19.0431C24.9786 18.9777 24.9032 18.8866 24.8572 18.7804C24.0671 17.0528 21.8319 16.675 20 16.675M20 4.3V1M20 16.675V30.7C20 31.5752 19.6488 32.4146 19.0236 33.0335C18.3984 33.6523 17.5505 34 16.6663 34C15.7822 34 14.9342 33.6523 14.309 33.0335C13.6838 32.4146 13.3326 31.5752 13.3326 30.7" stroke="white" stroke-width="2" stroke-linecap="square" stroke-linejoin="round" shape-rendering="crispEdges"/>
</g>
<defs>
<filter id="filter0_d_717_480" x="0" y="0" width="40" height="43" filterUnits="userSpaceOnUse" color-interpolation-filters="sRGB">
<feFlood flood-opacity="0" result="BackgroundImageFix"/>
<feColorMatrix in="SourceAlpha" type="matrix" values="0 0 0 0 0 0 0 0 0 0 0 0 0 0 0 0 0 0 127 0" result="hardAlpha"/>
<feOffset dy="4"/>
<feGaussianBlur stdDeviation="2"/>
<feComposite in2="hardAlpha" operator="out"/>
<feColorMatrix type="matrix" values="0 0 0 0 1 0 0 0 0 1 0 0 0 0 1 0 0 0 0.25 0"/>
<feBlend mode="normal" in2="BackgroundImageFix" result="effect1_dropShadow_717_480"/>
<feBlend mode="normal" in="SourceGraphic" in2="effect1_dropShadow_717_480" result="shape"/>
</filter>
</defs>
</svg>
